# Blender v2.77 (sub 0) OBJ File: ''
# www.blender.org
o Cube_Cube.001
v -4.000000 2.000000 -4.000000
v -4.000000 -2.000000 4.000000
v -4.000000 2.000000 4.000000
v 4.000000 2.000000 -4.000000
v -4.000000 -2.000000 -4.000000
v 4.000000 2.000000 4.000000
v 4.000000 -2.000000 -4.000000
v 4.000000 -2.000000 4.000000
vt 2.2565 0.5000
vt 0.5000 -3.0130
vt 2.2565 -3.0130
vt 2.2565 -3.0130
vt 4.0130 0.5000
vt 4.0130 4.0130
vt 2.2565 0.5000
vt 4.0130 0.5000
vt 2.2565 4.0130
vt 0.5000 0.5000
vt 2.2565 0.5000
vt 0.5000 4.0130
vt -3.0130 0.5000
vt 0.5000 0.5000
vt 0.5000 -3.0130
vt -3.0130 0.5000
vt -3.0130 -3.0130
vt 0.5000 0.5000
vt 4.0130 -3.0130
vt 2.2565 4.0130
vt 0.5000 4.0130
vt -3.0130 4.0130
vt 0.5000 0.5000
vn -1.0000 0.0000 0.0000
vn 0.0000 0.0000 -1.0000
vn 1.0000 0.0000 0.0000
vn 0.0000 0.0000 1.0000
vn 0.0000 -1.0000 -0.0000
vn 0.0000 1.0000 0.0000
s 1
f 1/1/1 2/2/1 3/3/1
f 4/4/2 5/5/2 1/1/2
f 6/6/3 7/7/3 4/8/3
f 3/9/4 8/10/4 6/11/4
f 5/12/5 8/13/5 2/14/5
f 4/15/6 3/16/6 6/17/6
f 1/1/1 5/18/1 2/2/1
f 4/4/2 7/19/2 5/5/2
f 6/6/3 8/20/3 7/7/3
f 3/9/4 2/21/4 8/10/4
f 5/12/5 7/22/5 8/13/5
f 4/15/6 1/23/6 3/16/6
